# xmcd CD database file
#
# Track frame offsets:
#	150
#	2515
#	19282
#	20570
#	32330
#	38035
#	39252
#	49737
#	63332
#	69437
#	70950
#	83515
#	105847
#	115812
#	116927
#	124047
#	126745
#	137760
#	147040
#	148030
#	154015
#	171585
#	173572
#	175002
#	192115
#
# Disc length: 2711 seconds
#
# Revision: 1
# Processed by: cddbd v1.5PL3 Copyright (c) Steve Scherf et al.
# Submitted via: CDex 1.50
#
DISCID=500a9519
DTITLE=House Of 1000 Corpses - House Of 1000 Corpses O.S.T.
DYEAR=2003
DGENRE=Soundtrack
TTITLE0=Howdy Folks
TTITLE1=House Of 1000 Corpses - Rob Zombie
TTITLE2=Saddle Up The Mule
TTITLE3=Everybody Scream - Rob Zombie
TTITLE4=Stuck In The Mud
TTITLE5=Holy Miss Moley
TTITLE6=Who's Gonna Mow Your Grass? - Buck Owens
TTITLE7=Run, Rabbit, Run - Rob Zombie
TTITLE8=Into The Pit
TTITLE9=Something For You Men
TTITLE10=I Wanna Be Loved By You - Helen Kane
TTITLE11=Pussy Liquor - Rob Zombie
TTITLE12=Scarecrow Attack
TTITLE13=My Baby Boy
TTITLE14=Now I Wanna Sniff Some Glue - Ramones
TTITLE15=Investigation And The Smokehouse
TTITLE16=The Bigger The Cushion
TTITLE17=I Remember You - Slim Whitman
TTITLE18=Drive Out the Rabbit
TTITLE19=Mary's Escape
TTITLE20=Little Piggy - Rob Zombie
TTITLE21=Ain't The Only Thing Tasty
TTITLE22=Dr. Satan
TTITLE23=Brick House 2003 - Rob Zombie Featuring Lionel Richie and Trina
TTITLE24=To The House
EXTD=YEAR: 2003
EXTT0=
EXTT1=
EXTT2=
EXTT3=
EXTT4=
EXTT5=
EXTT6=
EXTT7=
EXTT8=
EXTT9=
EXTT10=
EXTT11=
EXTT12=
EXTT13=
EXTT14=
EXTT15=
EXTT16=
EXTT17=
EXTT18=
EXTT19=
EXTT20=
EXTT21=
EXTT22=
EXTT23=
EXTT24=
PLAYORDER=
